<svg width="440" height="956" viewBox="0 0 440 956" fill="none" xmlns="http://www.w3.org/2000/svg">
<g clip-path="url(#clip0_371_10776)">
<rect width="440" height="956" fill="#36261B"/>
<ellipse cx="231.062" cy="709.315" rx="284.71" ry="449.315" fill="#EECF83"/>
<path d="M204.664 492.897C203.559 494.735 202.672 495.674 202.542 497.901C202.128 504.982 202.622 512.47 204.2 519.457C205.122 523.536 206.926 525.865 209.154 521.137C211.989 515.124 214.666 502.714 209.737 496.944C207.714 494.577 204.275 498.737 203.66 499.619C200.53 504.108 200.326 509.618 201.077 514.519C201.146 514.968 203.343 526.388 207.812 520.117C211.253 515.29 211.658 508.31 210.188 503.071C207.147 492.231 198.422 509.554 200.596 514.462C202.548 518.869 207.603 513.949 208.631 512.288C210.601 509.104 211.009 504.739 208.323 501.696C205.761 498.794 202.53 500.733 201.027 503.175C198.24 507.703 197.936 513.237 199.174 518.056C199.702 520.11 203.025 524.678 204.512 522.906C207.621 519.2 207.784 512.926 208.074 508.779C208.262 506.094 209.158 499.565 206.15 497.183C203.795 495.318 200.702 500.626 199.419 503.002C197.07 507.353 194.894 512.766 196.317 517.518C197.897 522.792 202.163 518.363 203.415 516.083C204.298 514.477 208.586 491.982 201.664 495.6C193.411 499.914 197.394 512.568 199.892 518.185C200.513 519.582 203.031 523.586 202.229 522.242C197.235 513.867 193.176 503.613 199.714 495.226C204.885 488.594 214.479 493.415 217.265 498.964C220.931 506.269 219.571 519.992 213.686 526.682C212.728 527.771 207.864 529.747 207.964 530.936C208.1 532.541 202.332 526.86 201.685 526.008C195.847 518.33 195.496 508.991 198.284 500.582C198.895 498.739 197.647 500.291 196.984 501.186C194.282 504.833 193.112 509.705 192.992 513.843C192.868 518.129 195.103 529.026 200.242 531.717C212.839 538.313 221.099 523.015 220.16 516.291" stroke="#97623D" stroke-width="10" stroke-linecap="round"/>
<path d="M300.022 492.897C298.917 494.735 298.029 495.674 297.899 497.901C297.485 504.982 297.979 512.47 299.558 519.457C300.479 523.536 302.283 525.865 304.512 521.137C307.346 515.124 310.024 502.714 305.094 496.944C303.072 494.577 299.632 498.737 299.017 499.619C295.888 504.108 295.683 509.618 296.435 514.519C296.504 514.968 298.7 526.388 303.17 520.117C306.611 515.29 307.015 508.31 305.545 503.071C302.504 492.231 293.779 509.554 295.954 514.462C297.906 518.869 302.96 513.949 303.988 512.288C305.959 509.104 306.367 504.739 303.68 501.696C301.118 498.794 297.887 500.733 296.384 503.175C293.597 507.703 293.294 513.237 294.532 518.056C295.059 520.11 298.383 524.678 299.87 522.906C302.978 519.2 303.141 512.926 303.431 508.779C303.619 506.094 304.516 499.565 301.507 497.183C299.152 495.318 296.059 500.626 294.776 503.002C292.428 507.353 290.251 512.766 291.675 517.518C293.255 522.792 297.52 518.363 298.773 516.083C299.655 514.477 303.944 491.982 297.021 495.6C288.768 499.914 292.751 512.568 295.249 518.185C295.87 519.582 298.389 523.586 297.587 522.242C292.592 513.867 288.533 503.613 295.072 495.226C300.242 488.594 309.837 493.415 312.622 498.964C316.289 506.269 314.928 519.992 309.044 526.682C308.086 527.771 303.221 529.747 303.322 530.936C303.457 532.541 297.69 526.86 297.043 526.008C291.205 518.33 290.853 508.991 293.641 500.582C294.252 498.739 293.005 500.291 292.342 501.186C289.639 504.833 288.47 509.705 288.35 513.843C288.225 518.129 290.46 529.026 295.599 531.717C308.196 538.313 316.456 523.015 315.517 516.291" stroke="#97623D" stroke-width="10" stroke-linecap="round"/>
<path d="M263.663 584.454C262.666 579.925 256.95 579.563 253.078 580.56C238.361 584.346 213.826 672.533 239.591 681.551C257.984 687.989 268.887 649.544 270.445 637.303C270.739 634.994 272.639 615.743 272.837 621.265" stroke="#97623D" stroke-width="10" stroke-linecap="round"/>
<path d="M8.1709 637.772C9.52623 660.875 18.8093 684.477 26.031 706.135C36.3001 736.933 52.5496 766.753 76.3509 789.328C85.4084 797.919 122.37 830.873 129.215 804.131C134.209 784.624 92.271 785.873 103.559 801.839C105.782 804.984 122.83 813.939 121.315 804.381C120.364 798.388 105.008 792.077 106.372 796.124C112.133 813.218 126.892 795.056 119.613 792.975C100.866 787.617 112.012 810.936 115.547 806.572C117.849 803.731 115.049 797.632 113.268 795.249C112.473 794.186 116.721 798.561 118.498 799.181C121.485 800.224 124.916 797.998 122.528 794.858C120.624 792.355 120.218 794.932 122.508 796.995C134.095 807.433 115.772 789.944 118.353 799.295C122.554 814.512 127.829 794.411 118.356 796.217C116.204 796.627 126.359 805.216 121.823 795.362C121.669 795.029 127.681 798.565 125.357 794.569" stroke="#97623D" stroke-width="10" stroke-linecap="round"/>
<path d="M326.842 819.902C336.429 816.682 345.282 801.54 350.74 795.131C368.301 774.513 382.737 754.108 394.892 729.955C403.673 712.505 408.507 693.832 414.418 675.317C419.706 658.751 426.06 642.027 428.217 624.66C428.842 619.629 430.014 614.73 430.759 609.731C431.284 606.207 430.369 603.081 432.887 607.559" stroke="#97623D" stroke-width="10" stroke-linecap="round"/>
<path d="M322.465 806.944C322.246 805.93 322.743 800.885 322.318 803.781C321.702 807.977 322.623 806.956 325.412 804.605C329.005 801.577 339.011 798.346 334.149 807.461C326.548 821.712 325.021 798.153 337.215 800.813C340.66 801.565 334.055 808.215 330.642 809.101C321.29 811.53 324.429 799.458 329.1 796.475C329.952 795.93 331.468 795.52 332.128 796.286C334.445 798.977 329.62 805.898 328.979 806.734C327.734 808.357 316.693 818.343 317.387 808.295C318.887 786.574 346.01 805.382 328.535 813.838C314.491 820.634 319.725 795.7 330.022 798.251C343.28 801.536 309.808 822.436 315.899 802.096C319.322 790.669 339.199 790.222 335.531 804.156C331.97 817.688 312.334 808.442 323.101 797.043C330.304 789.417 338.585 798.463 334.804 806.669C330.063 816.956 313.787 812.675 319.73 800.261C323.404 792.586 335.684 789.662 339.717 798.818C343.842 808.183 328.024 822.714 319.397 817.072C309.221 810.418 323.587 796.942 330.374 795.607C339.659 793.78 337.08 800.66 333.903 805.469" stroke="#97623D" stroke-width="10" stroke-linecap="round"/>
<path d="M184.745 585.098C184.745 605.662 168.074 622.333 147.51 622.333C126.946 622.333 110.275 605.662 110.275 585.098C110.275 564.534 126.946 547.863 147.51 547.863C168.074 547.863 184.745 564.534 184.745 585.098Z" fill="url(#paint0_radial_371_10776)" fill-opacity="0.7"/>
<path d="M166.187 574.654C165.607 574.654 164.664 577.067 164.302 577.58C160.359 583.161 156.973 589.111 153.412 594.938" stroke="#97623D" stroke-width="10" stroke-linecap="round"/>
<path d="M141.215 574.814C140.635 574.815 139.691 577.228 139.329 577.74C135.387 583.321 132 589.272 128.439 595.098" stroke="#97623D" stroke-width="10" stroke-linecap="round"/>
<path d="M390.9 585.098C390.9 605.662 374.23 622.333 353.665 622.333C333.101 622.333 316.431 605.662 316.431 585.098C316.431 564.534 333.101 547.863 353.665 547.863C374.23 547.863 390.9 564.534 390.9 585.098Z" fill="url(#paint1_radial_371_10776)" fill-opacity="0.7"/>
<path d="M372.342 574.654C371.762 574.654 370.818 577.067 370.456 577.58C366.514 583.161 363.127 589.111 359.566 594.938" stroke="#97623D" stroke-width="10" stroke-linecap="round"/>
<path d="M347.369 574.814C346.789 574.815 345.846 577.228 345.484 577.74C341.541 583.321 338.155 589.272 334.594 595.098" stroke="#97623D" stroke-width="10" stroke-linecap="round"/>
<path d="M206.082 441.875C205.636 441.875 204.667 440.261 204.329 439.918C198.482 433.983 187.055 432.783 179.056 433.72C173.62 434.357 168.973 436.456 164.706 439.836C164.333 440.131 159.277 444.534 159.811 444.593" stroke="#97623D" stroke-width="10" stroke-linecap="round"/>
<path d="M344.123 438.696C343.678 438.696 342.708 437.082 342.37 436.739C336.523 430.804 325.096 429.604 317.097 430.541C311.661 431.178 307.014 433.277 302.747 436.657C302.374 436.953 297.318 441.355 297.852 441.414" stroke="#97623D" stroke-width="10" stroke-linecap="round"/>
<path d="M160.307 368.581C159.103 365.531 158.287 370.604 158.245 371.712C158.221 372.333 158.484 372.662 158.452 371.893C158.334 369.077 157.121 371.545 158.948 370.708" stroke="#97623D" stroke-width="10" stroke-linecap="round"/>
<path d="M67.823 624.867C67.1661 623.554 68.1961 621.536 69.6943 621.236C71.4985 620.876 67.1125 625.327 68.1842 622.326C69.0339 619.947 72.1368 623.095 67.7737 623.561C65.5814 623.795 69.6153 620.098 69.3266 621.039C68.8796 622.496 66.8595 628.459 66.7002 624.158" stroke="#97623D" stroke-width="10" stroke-linecap="round"/>
<path d="M184.772 739.449C180.113 742.051 186.886 738.718 184.131 742.456C183.215 743.701 183.143 744.363 181.968 745.011C178.772 746.772 180.238 743.371 182.06 744.781C183.576 745.954 180.72 746.522 180.044 746.599" stroke="#97623D" stroke-width="10" stroke-linecap="round"/>
<path d="M337.236 684.728C336.87 683.188 337.585 682.783 336.12 683.461C333.969 684.457 336.245 679.112 335.05 681.951" stroke="#97623D" stroke-width="10" stroke-linecap="round"/>
<path d="M363.357 428.619C363.123 426.39 364.685 426.304 364.657 428.495C364.589 433.804 360.856 427.576 362.418 427.549C365.622 427.494 365.355 434.89 363.363 430.189C363.189 429.777 362.346 426.539 363.586 428.022C367.455 432.647 361.936 432.832 358.393 433.347" stroke="#97623D" stroke-width="10" stroke-linecap="round"/>
<ellipse cx="67.4745" cy="447.782" rx="42.6838" ry="95.8114" transform="rotate(20.4301 67.4745 447.782)" fill="#FBE7A2"/>
<path d="M106.336 875.769C106.652 874.566 105.528 878.928 105.082 877.963C103.9 875.405 107.317 870.05 105.509 872.933" stroke="#97623D" stroke-width="15" stroke-linecap="round"/>
<path d="M445.843 833.142C447.655 832.56 445.993 837.689 448.213 836.727C449.078 836.353 449.316 833.794 449.388 832.978C449.564 831.016 449.225 837.386 449.093 835.27" stroke="#97623D" stroke-width="15" stroke-linecap="round"/>
<path d="M29.0651 395.884C39.893 379.423 53.9696 362.849 65.7231 348.313C86.4365 325.841 101.875 312.446 124.754 294.819C145.013 282.022 157.808 276.754 175.02 270.593C190.207 265.157 214.521 261.51 230.909 261.877C255.367 262.425 271.839 264.347 295.153 274.927C311.117 282.172 324.603 287.699 342.539 299.505C359.581 311.551 370.135 318.766 382.607 333.442C395.931 349.12 409.136 363.819 421.857 379.988C431.8 392.625 442.836 411.927 450.231 426.276C469.177 463.038 482.004 503.327 490.773 543.764C497.418 574.411 507.427 604.332 510.689 635.631C520.804 732.7 510.689 800.358 498.97 872.557C479.899 958.152 416.362 1062.6 349.123 1118.9C319.986 1134.71 252.585 1164.94 216.077 1159.31C170.442 1152.27 72.587 1103.46 29.6762 1028.76C-13.2346 954.065 -39.5714 858.935 -43.4311 829.873C-46.5189 806.624 -51.6179 762.174 -53.875 738.83" stroke="#8D6B3E" stroke-width="12" stroke-linecap="round"/>
<path d="M16.6417 414.182C9.01594 426.648 -14.3724 475.566 -22.883 505.264C-32.5262 538.914 -41.0469 573.071 -46.8638 607.606C-51.4425 634.789 -53.1898 663.577 -53.8675 691.135C-54.1657 703.259 -53.8673 741.554 -53.8673 741.554" stroke="#8D6B3E" stroke-width="15" stroke-linecap="round"/>
</g>
<defs>
<radialGradient id="paint0_radial_371_10776" cx="0" cy="0" r="1" gradientUnits="userSpaceOnUse" gradientTransform="translate(149.579 585.098) scale(35.1662)">
<stop offset="0.100962" stop-color="#FF0000"/>
<stop offset="1" stop-color="#C20000" stop-opacity="0"/>
</radialGradient>
<radialGradient id="paint1_radial_371_10776" cx="0" cy="0" r="1" gradientUnits="userSpaceOnUse" gradientTransform="translate(355.734 585.098) scale(35.1662)">
<stop offset="0.100962" stop-color="#FF0000"/>
<stop offset="1" stop-color="#C20000" stop-opacity="0"/>
</radialGradient>
<clipPath id="clip0_371_10776">
<rect width="440" height="956" fill="white"/>
</clipPath>
</defs>
</svg>
